<svg width="148" height="14" viewBox="0 0 148 14" fill="none" xmlns="http://www.w3.org/2000/svg">
<path d="M132.047 3.51262V0.232422H147.585V3.51262H141.893V13.7391H137.739V3.51262H132.047Z" fill="#BCFE00"/>
<path d="M115.35 12.1174C113.768 10.8825 112.977 9.17167 112.977 6.98488C112.977 4.79808 113.768 3.08724 115.35 1.85234C116.932 0.617447 119.218 0 122.035 0C124.911 0.00324006 127.111 0.620687 128.693 1.85558C130.275 3.09048 131.066 4.80132 131.066 6.98812C131.066 9.17491 130.275 10.8858 128.693 12.1207C127.111 13.3555 124.911 13.973 122.035 13.9698C119.218 13.9698 116.932 13.3523 115.35 12.1174ZM118.283 4.28354C117.421 4.95245 116.99 5.85289 116.99 6.98488C116.99 8.11687 117.421 9.02374 118.283 9.70551C119.157 10.3744 120.466 10.7089 122.035 10.7089C123.663 10.7121 124.879 10.3776 125.741 9.70875C126.616 9.02698 127.053 8.12011 127.053 6.98812C127.053 5.85613 126.616 4.95569 125.741 4.28678C124.879 3.60502 123.663 3.26414 122.035 3.2609C120.466 3.2609 119.157 3.60178 118.283 4.28354Z" fill="#BCFE00"/>
<path d="M106.948 0.232422H110.962V13.7391H106.948V8.51008H99.0369V13.7391H95.0234V0.232422H99.0369V5.22989H106.948V0.232422Z" fill="#BCFE00"/>
<path d="M81.2333 8.97619C81.35 9.54219 81.7454 10.031 82.4195 10.4426C83.0936 10.8414 84.0854 11.0408 85.3948 11.0408C86.3411 11.0408 87.1708 10.9572 87.8838 10.7899C88.5969 10.6227 88.9534 10.359 88.9534 9.99884C88.9534 9.58721 88.4154 9.25919 87.3394 9.01479L82.1278 7.83777C79.4443 7.23319 78.1025 5.9983 78.1025 4.13309C78.1025 3.4256 78.284 2.80172 78.647 2.26145C79.0229 1.70832 79.535 1.27739 80.1832 0.968668C80.8314 0.647081 81.5574 0.409106 82.3612 0.254743C83.1649 0.0875186 84.027 0.00390625 84.9475 0.00390625C87.0217 0.00390625 88.7395 0.402675 90.1007 1.20021C91.4619 1.98488 92.2359 3.25194 92.4044 4.69265H88.5645C88.4348 4.22956 88.0589 3.82436 87.4366 3.47705C86.8143 3.11687 85.9263 2.93678 84.7725 2.93678C84.0076 2.93678 83.3788 3.0204 82.8862 3.18762C82.3936 3.35485 82.1473 3.58639 82.1473 3.88225C82.1473 4.28102 82.6658 4.59617 83.7029 4.82772L88.4672 5.86966C89.997 6.20411 91.1313 6.65433 91.8703 7.22033C92.6222 7.78632 92.9982 8.59672 92.9982 9.65153C92.9982 11.1051 92.3175 12.1921 90.9563 12.9124C89.5951 13.6199 87.7348 13.9737 85.3753 13.9737C80.3453 13.9737 77.6941 12.2435 77.4219 8.97619H81.2333Z" fill="#BCFE00"/>
<path d="M67.4926 0.232422C70.1424 0.232422 72.2328 0.817711 73.7635 1.98829C75.2943 3.15887 76.0597 4.82469 76.0597 6.98576C76.0597 9.14683 75.2943 10.8127 73.7635 11.9832C72.2328 13.1538 70.1424 13.7391 67.4926 13.7391H59.6797V0.232422H67.4926ZM67.0681 10.4589C68.7017 10.4589 69.9366 10.163 70.7728 9.57133C71.6218 8.96674 72.0463 8.10489 72.0463 6.98576C72.0463 5.86664 71.6218 5.01121 70.7728 4.41949C69.9366 3.81491 68.7017 3.51262 67.0681 3.51262H63.6931V10.4589H67.0681Z" fill="#BCFE00"/>
<path d="M54.4021 13.7391L53.3023 11.1342H45.3874L44.2876 13.7391H40.332L46.2557 0.232422H52.5498L58.4927 13.7391H54.4021ZM46.6802 8.12418H52.0288L49.3679 1.9497L46.6802 8.12418Z" fill="#BCFE00"/>
<path d="M24.9526 13.7391V8.49076H2.47591L0.117188 6.86999L2.47591 5.24279H24.9526V0.232422H39.0767V3.35825H28.966V5.22479V5.24279H24.9526V8.49076H28.966V10.6133H39.0767V13.7391H24.9526Z" fill="#BCFE00"/>
<path d="M17.6702 0.232422H21.6836V13.7391H17.6702V8.51008H9.76732V13.7391H5.75391V0.232422H9.76732V5.22989H17.6702V0.232422Z" fill="#BCFE00"/>
</svg>
