<svg xmlns="http://www.w3.org/2000/svg" width="137" height="13" viewBox="0 0 137 13" fill="none"><path d="M122.453 3.25673V0.214844H136.863V3.25673H131.584V12.7402H127.732V3.25673H122.453Z" fill="#040404"></path><path d="M106.97 11.2371C105.503 10.0919 104.77 8.50533 104.77 6.47741C104.77 4.44949 105.503 2.86294 106.97 1.71777C108.438 0.572588 110.558 0 113.17 0C115.837 0.00300466 117.877 0.575593 119.344 1.72077C120.811 2.86595 121.545 4.4525 121.545 6.48042C121.545 8.50834 120.811 10.0949 119.344 11.2401C117.877 12.3852 115.837 12.9578 113.17 12.9548C110.558 12.9548 108.438 12.3822 106.97 11.2371ZM109.69 3.97234C108.891 4.59264 108.491 5.42767 108.491 6.47741C108.491 7.52716 108.891 8.36815 109.69 9.00038C110.501 9.62069 111.715 9.93084 113.17 9.93084C114.68 9.93385 115.807 9.62369 116.607 9.00339C117.418 8.37116 117.823 7.53016 117.823 6.48042C117.823 5.43067 117.418 4.59565 116.607 3.97534C115.807 3.34311 114.68 3.02699 113.17 3.02399C111.715 3.02399 110.501 3.3401 109.69 3.97234Z" fill="#040404"></path><path d="M99.1796 0.214844H102.901V12.7402H99.1796V7.89112H91.8429V12.7402H88.1211V0.214844H91.8429V4.84924H99.1796V0.214844Z" fill="#040404"></path><path d="M75.3353 8.32434C75.4435 8.84921 75.8102 9.30251 76.4353 9.68424C77.0605 10.054 77.9802 10.2389 79.1944 10.2389C80.072 10.2389 80.8414 10.1614 81.5027 10.0063C82.1639 9.85124 82.4945 9.6067 82.4945 9.27269C82.4945 8.89096 81.9956 8.58678 80.9977 8.36013L76.1648 7.26863C73.6762 6.70797 72.4319 5.56279 72.4319 3.8331C72.4319 3.177 72.6003 2.59845 72.9369 2.09743C73.2855 1.58449 73.7604 1.18487 74.3615 0.898576C74.9626 0.600353 75.6359 0.379667 76.3812 0.23652C77.1266 0.081444 77.9261 0.00390625 78.7796 0.00390625C80.7032 0.00390625 82.2961 0.373703 83.5585 1.1133C84.8208 1.84096 85.5385 3.01596 85.6948 4.352H82.1338C82.0136 3.92256 81.665 3.5468 81.0879 3.22472C80.5108 2.89071 79.6873 2.7237 78.6173 2.7237C77.908 2.7237 77.325 2.80124 76.8681 2.95632C76.4113 3.11139 76.1829 3.32611 76.1829 3.60048C76.1829 3.97028 76.6637 4.26254 77.6255 4.47726L82.0437 5.4435C83.4623 5.75365 84.5142 6.17117 85.1995 6.69604C85.8968 7.22091 86.2454 7.97244 86.2454 8.95061C86.2454 10.2986 85.6142 11.3066 84.3519 11.9746C83.0896 12.6307 81.3644 12.9587 79.1764 12.9587C74.5118 12.9587 72.0532 11.3543 71.8008 8.32434H75.3353Z" fill="#040404"></path><path d="M62.5929 0.214844C65.0503 0.214844 66.9887 0.757611 68.4083 1.84314C69.8278 2.92868 70.5376 4.47348 70.5376 6.47754C70.5376 8.4816 69.8278 10.0264 68.4083 11.1119C66.9887 12.1975 65.0503 12.7402 62.5929 12.7402H55.3477V0.214844H62.5929ZM62.1993 9.69835C63.7142 9.69835 64.8594 9.42399 65.6348 8.87526C66.4221 8.3146 66.8158 7.51536 66.8158 6.47754C66.8158 5.43972 66.4221 4.64645 65.6348 4.09772C64.8594 3.53705 63.7142 3.25673 62.1993 3.25673H59.0695V9.69835H62.1993Z" fill="#040404"></path><path d="M50.4541 12.7402L49.4342 10.3246H42.0943L41.0744 12.7402H37.4062L42.8995 0.214844H48.7364L54.2475 12.7402H50.4541ZM43.2932 7.53325H48.2532L45.7856 1.80736L43.2932 7.53325Z" fill="#040404"></path><path d="M23.1404 12.7402V7.8732H2.29674L0.109375 6.37018L2.29674 4.8612H23.1404V0.214844H36.2384V3.11358H26.8622V4.8445V4.8612H23.1404V7.8732H26.8622V9.8415H36.2384V12.7402H23.1404Z" fill="#040404"></path><path d="M16.3904 0.214844H20.1123V12.7402H16.3904V7.89112H9.06168V12.7402H5.33984V0.214844H9.06168V4.84924H16.3904V0.214844Z" fill="#040404"></path></svg>